<!DOCTYPE svg PUBLIC "-//W3C//DTD SVG 1.1//EN" "http://www.w3.org/Graphics/SVG/1.1/DTD/svg11.dtd">

<!-- Uploaded to: SVG Repo, www.svgrepo.com, Transformed by: SVG Repo Mixer Tools -->
<svg fill="#946896" version="1.1" id="Capa_1" xmlns="http://www.w3.org/2000/svg" width="800px" height="800px"
     viewBox="0 0 151.308 151.308" xml:space="preserve" transform="matrix(-1, 0, 0, -1, 0, 0)">

<g id="SVGRepo_bgCarrier" stroke-width="0"/>

    <g id="SVGRepo_tracerCarrier" stroke-linecap="round" stroke-linejoin="round"/>

    <g id="SVGRepo_iconCarrier"> <g> <path
            d="M143.692,53.656c-2.302-1.4-5.279-1.275-7.362,0.636c-2.502,2.302-2.685,6.211-0.384,8.716 c2.29,2.515,6.211,2.701,8.708,0.387c0.098-0.079,0.134-0.197,0.201-0.286c2.125,5.837,0.676,12.617-4.171,17.056 c-3.483,3.19-7.929,4.896-12.52,5.213V28.337l2.716-2.707c2.983,1.482,6.649,1.09,9.134-1.403c0.646-0.643,1.071-1.404,1.437-2.177 l2.606,2.612c0.475,0.475,1.133,0.731,1.766,0.731c0.244,0,0.499-0.046,0.73-0.119c0.89-0.268,1.547-1.011,1.711-1.915 l2.911-15.177c0.359-1.803-0.024-3.471-1.048-4.713c-1.199-1.459-3.05-2.15-5.376-1.708l-15.168,2.922 c-0.907,0.177-1.65,0.837-1.919,1.711c-0.268,0.892-0.036,1.845,0.628,2.493l2.618,2.618c-0.768,0.381-1.534,0.798-2.174,1.44 c-2.479,2.475-2.898,6.147-1.413,9.127l-0.377,0.362c-0.39-0.244-0.828-0.411-1.304-0.411H66.688 c0.597-3.985,2.351-7.688,5.118-10.727c4.433-4.825,11.231-6.271,17.059-4.165c-0.091,0.089-0.194,0.125-0.298,0.207 c-2.296,2.494-2.119,6.415,0.383,8.705c2.521,2.301,6.431,2.131,8.732-0.381c1.899-2.076,2.021-5.057,0.633-7.347 c-0.036-0.63-0.304-1.233-0.804-1.689c-8.458-7.73-21.659-7.152-29.389,1.291c-3.629,3.973-5.8,8.859-6.418,14.093H2.484 C1.105,22.014,0,23.128,0,24.501c0,1.37,1.124,2.494,2.484,2.494h59.111c0.459,6.116,3.078,11.749,7.45,16.057H23.522 c-1.391,0-2.496,1.114-2.496,2.487c0,1.37,1.123,2.494,2.496,2.494h52.306c4.938,2.7,10.517,4.104,16.24,3.878 c2.198-0.106,4.299-0.493,6.369-1.023l-7.965,7.974c-8.78-6.881-22.231-6.415-30.245,1.58c-4.29,4.29-6.652,10.005-6.652,16.081 c0,6.09,2.369,11.808,6.652,16.094c4.302,4.299,10.014,6.668,16.1,6.668c6.083,0,11.794-2.362,16.087-6.668 c4.293-4.286,6.668-9.998,6.668-16.094c0-5.23-1.852-10.129-5.072-14.153l6.479-6.485c-0.207,1.297-0.42,2.6-0.499,3.939 c-0.177,4.339,0.578,8.567,2.07,12.498v54.261c0,1.376,1.139,2.497,2.49,2.497c1.383,0,2.497-1.127,2.497-2.497V80.768 c0.39,0.47,0.67,0.993,1.084,1.432c3.97,4.342,9.23,6.996,14.967,7.861v57.561c0,1.376,1.12,2.496,2.484,2.496 c1.357,0,2.49-1.126,2.49-2.496V90.34c5.883-0.285,11.479-2.515,15.887-6.563c8.445-7.733,9.019-20.923,1.291-29.396 C144.916,53.958,144.301,53.696,143.692,53.656z M73.143,40.132c-3.766-3.434-5.982-8.068-6.455-13.091h55.753l-10.645,10.644 c-0.584,0.012-1.169,0.204-1.638,0.627c-0.84,0.768-1.62,1.565-2.362,2.408c-1.035,0.892-2.144,1.678-3.282,2.381H77.102 C75.704,42.239,74.376,41.262,73.143,40.132z M89.219,70.679c-1.248,3.689-3.897,7.672-7.453,11.246 c-4.957,4.957-10.863,8.178-15.028,8.178c-0.101,0-0.149-0.036-0.243-0.036l23.419-23.435C89.962,67.78,89.73,69.159,89.219,70.679 z M71.097,71.244c4.957-4.953,10.838-8.159,15.016-8.159c0.098,0,0.158,0.031,0.243,0.031L62.953,86.528 C62.816,82.856,65.571,76.762,71.097,71.244z M63.863,64.02c3.361-3.355,7.818-5.2,12.577-5.2c1.422,0,2.779,0.219,4.122,0.536 c-4.283,1.446-8.911,4.29-12.988,8.37c-4.153,4.153-6.972,8.61-8.443,12.72c-0.274-1.248-0.444-2.533-0.444-3.848 C58.663,71.836,60.502,67.381,63.863,64.02z M88.987,89.152c-4.274,4.281-10.571,5.797-16.307,4.629 c4.177-1.535,8.641-4.366,12.604-8.33c3.945-3.959,6.911-8.446,8.458-12.709c0.268,1.255,0.432,2.533,0.432,3.849 C94.193,81.334,92.349,85.792,88.987,89.152z M111.913,78.917c-2.07-2.265-3.605-4.853-4.768-7.605V51.062 c0.486-1.151,1.022-2.281,1.687-3.358l14.389-14.374v51.773C118.885,84.3,114.939,82.205,111.913,78.917z"/> </g> </g>

</svg>