<?xml version="1.0" encoding="iso-8859-1"?>
<!-- Uploaded to: SVG Repo, www.svgrepo.com, Generator: SVG Repo Mixer Tools -->
<!DOCTYPE svg PUBLIC "-//W3C//DTD SVG 1.1//EN" "http://www.w3.org/Graphics/SVG/1.1/DTD/svg11.dtd">
<svg fill="#BA5170" version="1.1" id="Capa_1" xmlns="http://www.w3.org/2000/svg" xmlns:xlink="http://www.w3.org/1999/xlink"
	 width="800px" height="800px" viewBox="0 0 221.324 221.324"
	 xml:space="preserve">
<g>
	<path d="M221.006,104.802c-0.768-4.293-3.173-8.035-6.753-10.528c-3.587-2.494-7.935-3.438-12.228-2.67
		c-0.846,0.149-1.419,0.962-1.254,1.808c0.146,0.849,0.968,1.404,1.809,1.26c3.501-0.618,6.996,0.149,9.895,2.165
		c2.898,2.019,4.835,5.042,5.462,8.524c0.816,4.524-0.25,9.262-2.929,12.995c-1.62,2.265-3.764,3.976-6.162,5.139
		c5.474-4.53,6.369-12.653,1.924-18.243c-3.721-4.643-10.528-5.432-15.18-1.714c-3.854,3.078-4.494,8.704-1.426,12.57
		c1.236,1.56,3.015,2.546,5,2.771c2.003,0.207,3.945-0.342,5.504-1.584c0.372-0.292,0.53-0.712,0.542-1.162
		c0.269-0.481,0.457-0.999,0.457-1.584c0-1.826-1.474-3.312-3.307-3.312s-3.3,1.486-3.3,3.312c0,0.396,0.097,0.786,0.225,1.151
		c-1.053-0.183-2.003-0.694-2.673-1.534c-2.003-2.516-1.589-6.199,0.92-8.19c3.3-2.63,8.159-2.083,10.79,1.224
		c3.422,4.306,2.709,10.596-1.602,14.029c-5.529,4.396-12.002,3.605-18.231-2.223c-0.262-0.243-0.608-0.316-0.932-0.347
		c-2.996-2.898-6.089-6.674-9.669-11.204c-1.614-2.027-3.167-4.21-4.726-6.394c0.529,0.095,1.065,0.22,1.607,0.22
		c1.656,0,3.325-0.451,4.963-1.367c4.152-2.338,5.626-7.611,3.294-11.765c-0.943-1.684-2.49-2.901-4.354-3.419
		c-1.863-0.523-3.806-0.28-5.48,0.664c-2.929,1.638-3.977,5.361-2.326,8.302c1.4,2.497,4.567,3.379,7.063,1.97
		c0.597-0.335,0.779-1.008,0.651-1.65c0.031-0.101,0.135-0.149,0.152-0.262c0.158-1.111-0.597-2.141-1.705-2.308
		c-1.077-0.155-2.063,0.587-2.253,1.646c-0.48-0.149-0.913-0.456-1.188-0.922c-0.804-1.435-0.292-3.255,1.146-4.062
		c0.949-0.536,2.058-0.673,3.111-0.372c1.06,0.293,1.942,0.983,2.479,1.943c1.491,2.658,0.542,6.031-2.107,7.526
		c-4.414,2.497-7.861-0.335-9.712-2.548c-7.666-10.358-16.423-19.687-31.725-19.687c-0.03,0-0.073,0-0.115,0
		c-7.545,0.027-14.396,3.051-19.27,8.507c-2.207,2.469-3.803,5.422-5.015,8.567v-5.949c0.238-0.195,0.493-0.362,0.673-0.637
		l3.873-5.717c0.325-0.481,0.356-1.09,0.088-1.602c-0.268-0.511-0.798-0.831-1.379-0.831h-1.303c0.006-0.08,0.045-0.143,0.045-0.229
		c0-1.967-1.598-3.556-3.562-3.556c-1.958,0-3.553,1.589-3.553,3.556c0,0.08,0.037,0.149,0.042,0.229h-1.632
		c-0.582,0-1.111,0.32-1.379,0.831c-0.268,0.511-0.238,1.126,0.088,1.602l3.879,5.717c0.274,0.405,0.621,0.713,1.002,0.941v6.418
		c-1.215-3.456-2.947-6.674-5.344-9.354c-4.88-5.456-11.728-8.482-19.278-8.506c-0.04,0-0.07,0-0.113,0
		c-15.296,0-24.049,9.334-31.725,19.692c-1.842,2.213-5.276,5.039-9.709,2.548c-2.658-1.495-3.605-4.868-2.107-7.526
		c0.536-0.953,1.422-1.644,2.481-1.942c1.06-0.301,2.155-0.164,3.118,0.378c1.428,0.797,1.939,2.618,1.142,4.055
		c-0.271,0.472-0.707,0.773-1.188,0.928c-0.198-1.06-1.178-1.802-2.256-1.646c-1.117,0.161-1.875,1.19-1.708,2.308
		c0.012,0.112,0.125,0.161,0.155,0.262c-0.125,0.643,0.049,1.309,0.648,1.65c2.494,1.409,5.663,0.518,7.072-1.977
		c1.638-2.935,0.591-6.658-2.332-8.296c-1.677-0.95-3.623-1.188-5.483-0.664c-1.863,0.518-3.41,1.735-4.356,3.419
		c-2.338,4.153-0.855,9.433,3.297,11.765c1.635,0.916,3.306,1.367,4.962,1.367c0.539,0,1.075-0.125,1.604-0.22
		c-1.559,2.183-3.111,4.372-4.722,6.394c-3.583,4.524-6.665,8.294-9.651,11.192c-0.344,0.024-0.685,0.104-0.953,0.353
		c-6.235,5.834-12.702,6.625-18.228,2.217c-4.308-3.422-5.023-9.725-1.602-14.029c2.643-3.301,7.484-3.854,10.799-1.225
		c2.509,2.004,2.926,5.676,0.922,8.178c-0.667,0.841-1.62,1.364-2.673,1.547c0.131-0.365,0.231-0.742,0.231-1.15
		c0-1.827-1.474-3.312-3.306-3.312c-1.833,0-3.31,1.485-3.31,3.312c0,0.584,0.192,1.108,0.46,1.583
		c0.012,0.433,0.176,0.858,0.542,1.163c1.559,1.242,3.504,1.79,5.502,1.571c1.982-0.22,3.76-1.2,4.999-2.759
		c3.069-3.86,2.433-9.493-1.428-12.571c-4.665-3.705-11.466-2.932-15.184,1.721c-4.439,5.583-3.553,13.713,1.927,18.249
		c-2.405-1.176-4.545-2.874-6.165-5.151c-2.676-3.745-3.742-8.47-2.926-13.007c0.624-3.477,2.563-6.5,5.462-8.521
		c2.901-2.013,6.418-2.773,9.895-2.162c0.837,0.143,1.659-0.411,1.808-1.26c0.149-0.85-0.411-1.659-1.257-1.809
		c-4.29-0.768-8.638,0.174-12.221,2.67c-3.587,2.494-5.989,6.235-6.753,10.534c-0.962,5.347,0.292,10.948,3.452,15.369
		c3.082,4.299,7.621,7.118,12.775,7.91c12.921,1.979,20.529-7.594,29.325-18.682c0.046-0.055,0.088-0.128,0.131-0.177
		c0.006,0,0.019,0,0.031-0.012c1.896-2.102,5.751-5.191,10.239-2.199c2.533,1.688,3.23,5.109,1.565,7.643
		c-1.257,1.875-3.815,2.387-5.7,1.133c-0.667-0.433-1.114-1.108-1.27-1.888c-0.158-0.78,0-1.56,0.436-2.211
		c0.344-0.518,0.868-0.785,1.428-0.858c0.186,1.011,1.066,1.766,2.113,1.681c1.123-0.098,1.939-1.071,1.848-2.192
		c-0.015-0.158-0.158-0.256-0.213-0.396c0.037-0.542-0.101-1.077-0.588-1.406c-2.381-1.571-5.599-0.92-7.176,1.437
		c-0.898,1.352-1.221,2.972-0.904,4.561c0.32,1.602,1.242,2.979,2.6,3.879c1.23,0.816,2.612,1.206,3.992,1.206
		c2.338,0,4.646-1.133,6.034-3.222c2.612-3.964,1.522-9.322-2.43-11.953c-2.32-1.546-4.813-2.064-7.264-1.601
		c0.316-0.451,0.648-0.868,0.971-1.318c1.248-1.745,2.509-3.492,3.791-5.213c0.045-0.055,0.094-0.094,0.137-0.149
		c0.015-0.012,0-0.03,0.015-0.048c7.14-9.548,15.287-18.009,28.899-18.009c0.03,0,0.064,0,0.094,0
		c6.652,0.018,12.675,2.676,16.958,7.462c4.807,5.377,7.066,12.976,6.211,20.85c-0.63,5.748-3.462,10.911-7.974,14.541
		c-4.177,3.36-9.335,4.92-14.629,4.664c-3.191-0.536-5.76-2.003-7.408-4.323c-1.982-2.801-2.63-6.723-1.778-10.766
		c0.551-2.606,2.077-4.835,4.311-6.29c2.232-1.452,4.905-1.952,7.517-1.395c2.016,0.423,3.736,1.607,4.853,3.325
		c1.108,1.717,1.489,3.769,1.06,5.771c-0.316,1.511-1.203,2.802-2.5,3.66c-1.303,0.853-2.85,1.163-4.402,0.822
		c-1.029-0.22-1.897-0.828-2.527-1.669c1.541-0.292,2.713-1.595,2.695-3.228c-0.024-1.82-1.522-3.287-3.349-3.264
		c-1.376,0.013-2.536,0.871-3.017,2.059c-0.055,0.115-0.174,0.164-0.204,0.292c-0.064,0.286,0.012,0.572-0.015,0.858
		c0,0.049-0.024,0.092-0.024,0.141c0,0.036,0.018,0.066,0.024,0.104c-0.098,1.57,0.176,3.142,1.047,4.494
		c1.093,1.674,2.771,2.831,4.728,3.251c2.338,0.493,4.737,0.049,6.753-1.261c1.994-1.303,3.361-3.307,3.845-5.626
		c0.6-2.813,0.07-5.699-1.501-8.111c-1.571-2.42-3.998-4.083-6.823-4.683c-3.416-0.737-6.926-0.076-9.865,1.833
		c-2.929,1.909-4.938,4.834-5.66,8.256c-0.85,4.02-0.38,7.94,1.178,11.174c-0.582-0.542-1.172-1.078-1.678-1.711
		c-2.85-3.544-4.146-7.988-3.647-12.514c0.798-7.288,7.408-12.537,14.678-11.791c0.822,0.076,1.62-0.518,1.714-1.382
		c0.095-0.855-0.523-1.623-1.382-1.714c-8.969-0.986-17.135,5.542-18.115,14.548c-0.584,5.352,0.947,10.601,4.32,14.803
		c3.374,4.195,8.175,6.825,13.524,7.404c0.545,0.061,1.081,0.061,1.623,0.085c0.082,0.012,0.149,0.049,0.237,0.061
		c0.067,0.007,0.131,0.013,0.198,0.013c0.033,0,0.058-0.031,0.094-0.037c0.192,0.006,0.393,0.031,0.587,0.031
		c5.618,0,11.034-1.906,15.476-5.469c3.434-2.765,5.921-6.351,7.48-10.346v9.523c-6.348,0.707-11.311,6.041-11.311,12.568
		c0,7.009,5.7,12.708,12.708,12.708s12.705-5.699,12.705-12.708c0-6.406-4.805-11.686-10.985-12.531v-8.787
		c1.571,3.678,3.943,6.99,7.148,9.572c4.451,3.562,9.858,5.469,15.473,5.469c0.195,0,0.39-0.025,0.591-0.031
		c0.037,0,0.062,0.037,0.098,0.037c0.067,0,0.128,0,0.194-0.013c0.086-0.012,0.146-0.049,0.238-0.061
		c0.535-0.024,1.077-0.024,1.613-0.085c5.353-0.579,10.163-3.216,13.53-7.404c3.361-4.189,4.901-9.451,4.317-14.803
		c-0.986-9.006-9.128-15.516-18.115-14.554c-0.853,0.091-1.474,0.858-1.383,1.714c0.104,0.859,0.92,1.459,1.711,1.383
		c7.283-0.746,13.89,4.497,14.675,11.791c0.493,4.519-0.804,8.964-3.647,12.508c-0.505,0.633-1.09,1.169-1.68,1.711
		c1.559-3.233,2.021-7.161,1.175-11.174c-0.725-3.422-2.728-6.354-5.663-8.257c-2.935-1.909-6.442-2.569-9.864-1.833
		c-2.819,0.597-5.249,2.262-6.82,4.683c-1.564,2.411-2.101,5.298-1.504,8.104c0.487,2.332,1.857,4.33,3.849,5.633
		c2.01,1.303,4.396,1.741,6.753,1.254c1.954-0.414,3.635-1.57,4.726-3.245c0.883-1.346,1.15-2.917,1.047-4.494
		c0-0.036,0.03-0.066,0.03-0.104c0-0.055-0.03-0.097-0.03-0.14c-0.024-0.286,0.055-0.572-0.012-0.858
		c-0.031-0.146-0.165-0.214-0.238-0.341c-0.493-1.164-1.638-1.998-2.983-2.01c-1.827-0.024-3.324,1.438-3.349,3.264
		c-0.019,1.632,1.156,2.936,2.691,3.228c-0.634,0.84-1.492,1.437-2.521,1.668c-1.547,0.323-3.093,0.03-4.402-0.821
		c-1.297-0.859-2.192-2.15-2.496-3.672c-0.427-1.998-0.049-4.044,1.06-5.761c1.126-1.717,2.843-2.896,4.847-3.325
		c2.612-0.563,5.285-0.064,7.52,1.394c2.229,1.455,3.764,3.685,4.306,6.291c0.858,4.043,0.213,7.964-1.772,10.766
		c-1.656,2.325-4.231,3.787-7.422,4.322c-5.273,0.269-10.443-1.314-14.614-4.664c-4.516-3.629-7.344-8.793-7.968-14.541
		c-0.855-7.879,1.409-15.472,6.208-20.849c4.286-4.792,10.303-7.444,16.958-7.463c0.03,0,0.067,0,0.104,0
		c13.615,0,21.757,8.461,28.899,18.009c0.012,0.013,0,0.031,0.019,0.043c0.042,0.055,0.091,0.094,0.127,0.143
		c1.291,1.726,2.552,3.474,3.8,5.218c0.323,0.457,0.651,0.874,0.975,1.321c-2.46-0.466-4.95,0.052-7.271,1.599
		c-3.952,2.631-5.048,7.995-2.43,11.959c1.389,2.082,3.684,3.209,6.028,3.209c1.376,0,2.759-0.384,4.001-1.193
		c1.357-0.914,2.277-2.283,2.6-3.885c0.316-1.596,0-3.215-0.907-4.561c-1.577-2.357-4.798-3.015-7.173-1.432
		c-0.487,0.316-0.634,0.859-0.591,1.4c-0.049,0.146-0.188,0.244-0.213,0.402c-0.092,1.114,0.725,2.095,1.851,2.186
		c1.048,0.092,1.918-0.663,2.107-1.687c0.56,0.085,1.084,0.354,1.431,0.864c0.433,0.646,0.591,1.438,0.433,2.217
		c-0.152,0.779-0.604,1.443-1.272,1.888c-1.888,1.255-4.451,0.743-5.693-1.139c-1.675-2.526-0.969-5.961,1.559-7.642
		c4.487-2.993,8.336,0.098,10.235,2.198c0.007,0.006,0.024,0.006,0.037,0.019c0.042,0.049,0.085,0.115,0.134,0.17
		c8.793,11.082,16.392,20.654,29.313,18.682c5.163-0.785,9.706-3.599,12.787-7.916C220.707,115.75,221.974,110.153,221.006,104.802z
		 M109.257,126.345v17.562c-1.315-1.389-2.582-4.507-2.582-8.787S107.942,127.709,109.257,126.345z M112.375,143.413v-16.587
		c1.185,1.534,2.253,4.378,2.253,8.293C114.634,139.034,113.56,141.872,112.375,143.413z M101.064,135.119
		c0-3.142,1.541-5.9,3.885-7.666c-0.868,2.112-1.392,4.726-1.392,7.666c0,2.953,0.518,5.56,1.392,7.667
		C102.605,141.032,101.064,138.261,101.064,135.119z M120.242,135.119c0,3.142-1.541,5.913-3.882,7.667
		c0.868-2.107,1.392-4.714,1.392-7.667c0-2.935-0.518-5.554-1.392-7.666C118.701,129.219,120.242,131.978,120.242,135.119z"/>
</g>
</svg>